<svg xmlns="http://www.w3.org/2000/svg" xmlns:xlink="http://www.w3.org/1999/xlink" aria-hidden="true" role="img" width="16px" height="16px" preserveAspectRatio="xMidYMid meet" viewBox="143 112 214 214">
    <g transform="matrix(2.2314824460881337 0 0 2.2314824460881337 250.48196457964372 218.50858193561828)">
        <circle style="stroke: none; stroke-width: 1; stroke-dasharray: none; stroke-linecap: butt; stroke-dashoffset: 0; stroke-linejoin: miter; stroke-miterlimit: 4; fill: rgb(0,0,0); fill-rule: evenodd; opacity: 1;" cx="0" cy="0" r="47.0059"/>
    </g>
    <g transform="matrix(1.6249887825867784 0 0 1.6249887825867784 250.5370934472341 218.85436607979995)">
        <polygon style="stroke: none; stroke-width: 1; stroke-dasharray: none; stroke-linecap: butt; stroke-dashoffset: 0; stroke-linejoin: miter; stroke-miterlimit: 4; fill: rgb(244,240,243); fill-rule: nonzero; opacity: 1;"  points="33.586,36.414 0,2.828000000000003 -33.586,36.414 -36.414,33.586 -2.8290000000000006,0 -36.414,-33.585 -33.586,-36.414 0,-2.8290000000000006 33.586,-36.414 36.414,-33.586 2.828000000000003,0 36.414,33.586 "/>
    </g>
    <g transform="matrix(0.5 0 0 0.5 251.145509948953 371.9522591676216)" style="">
    </g>
    <g transform="matrix(0.5 0 0 0.5 179.72749765600582 218.30208657151786)" style="">
        <path fill="#F4F0F3" opacity="1" d="M-18.35-57.86L-18.35-64.36L18.35-64.36L18.35-57.86L3.34-57.86L3.34 52.40L-3.34 52.40L-3.34-57.86L-18.35-57.86Z"/>
    </g>
    <g transform="matrix(0.5 0 0 0.5 250 155.59274184810914)" style="">
        <path fill="#F4F0F3" opacity="1" d="M13.84 52.40L10.68 30.55L-10.84 30.55L-13.84 52.40L-20.68 52.40L-3.34-64.53L3.34-64.53L20.68 52.40L13.84 52.40ZM-5.00-9.65L-9.84 24.21L9.84 24.21L5.00-9.65L-0.00-48.85L-5.00-9.65Z"/>
    </g>
    <g transform="matrix(0.14809412598089186 0 0 0.14809412598089186 251.14550994895296 277.1041254297322)">
        <path style="stroke: none; stroke-width: 0; stroke-dasharray: none; stroke-linecap: butt; stroke-dashoffset: 0; stroke-linejoin: miter; stroke-miterlimit: 4; fill: rgb(255,255,255); fill-rule: nonzero; opacity: 1;"  transform=" translate(-382.8565000000001, -532.3618079960786)" d="M 379.93 375.668 c -0.57 0.019 -1.226 0.228 -1.585 0.731 l -80.673 96.527 c -1.342 1.681 -1.433 2.056 0.366 2.073 l 161.59 -0.427 c 2.221 -0.182 2.23 -0.07 0.792 -1.951 l -79.27 -96.527 C 380.986 375.84 380.501 375.654 379.93 375.668 L 379.93 375.668 z M 395.419 384.266 l 72.746 88.478 c 0.974 1.182 1.212 1.249 2.927 0.427 l 38.354 -17.562 c 2.513 -1.134 2.165 -1.366 0.487 -2.5 L 395.419 384.266 z M 361.454 387.498 c -0.034 -0.072 -0.625 0.37 -1.952 1.281 L 253.89 458.292 l 33.05 15.001 c 1.724 0.568 2.239 0.599 3.354 -0.793 l 69.698 -83.234 C 360.973 388.129 361.487 387.57 361.454 387.498 L 361.454 387.498 z M 515.056 459.756 c -0.328 0.023 -0.846 0.212 -1.646 0.548 l -39.392 17.989 c -1.398 0.635 -1.311 1.49 -0.792 2.561 l 45.793 116.162 l -3.292 -135.309 C 515.626 460.228 515.604 459.717 515.056 459.756 L 515.056 459.756 z M 250.902 463.354 l -4.208 131.651 l 38.782 -113.907 c 0.573 -1.682 0.559 -1.767 -0.61 -2.317 L 250.902 463.354 L 250.902 463.354 z M 461.761 480.427 l -165.249 0.427 c -2.361 -0.035 -2.264 -0.033 -1.098 1.89 l 83.905 141.529 c 1.417 2.159 1.265 2.092 2.744 -0.121 l 80.612 -141.772 C 463.383 481.253 463.887 480.466 461.761 480.427 L 461.761 480.427 z M 468.347 484.147 c -0.152 0.064 -0.318 0.639 -0.793 1.524 l -81.16 142.809 c -0.887 1.508 -1.097 2.048 1.036 1.708 l 128.845 -17.744 c 2.044 -0.467 1.982 -1.197 1.281 -3.232 l -48.6 -123.479 C 468.635 484.55 468.5 484.083 468.347 484.147 L 468.347 484.147 z M 290.171 485.489 c -0.158 0.113 -0.3 0.715 -0.609 1.585 l -41.16 121.162 c -0.701 2.573 -0.78 3.541 1.829 4.024 l 123.113 17.805 c 2.328 0.351 2.03 -0.822 1.463 -1.951 l -83.783 -141.345 C 290.498 485.702 290.329 485.375 290.171 485.489 L 290.171 485.489 z M 258.158 619.334 l 120.796 68.538 c 1.564 0.949 1.929 0.604 1.707 -1.036 l -2.561 -48.05 c -0.07 -1.551 -0.28 -2.183 -1.89 -2.439 L 258.158 619.334 L 258.158 619.334 z M 507.922 619.455 l -122.625 16.952 c -1.618 0.238 -1.326 1.032 -1.342 2.195 l 2.622 48.903 c 0.135 1.483 0.091 2.017 1.89 1.098 L 507.922 619.455 z" stroke-linecap="round"/>
    </g>
    <g transform="matrix(0.5 0 0 0.5 319.99794249400986 218.30208657151783)" style="">
        <path fill="#F4F0F3" opacity="1" d="M18.01 19.04L18.01 35.72Q18.01 44.73 14.09 49.40Q10.17 54.07 1.33 54.07L1.33 54.07Q-7.51 54.07-11.43 49.40Q-15.35 44.73-15.35 35.72L-15.35 35.72L-15.35-47.85Q-15.35-56.86-11.43-61.44Q-7.51-66.03 1.33-66.03L1.33-66.03Q10.17-66.03 14.09-61.44Q18.01-56.86 18.01-47.85L18.01-47.85L18.01-31.00L11.34-31.00L11.34-47.85Q11.34-53.69 9.01-56.69Q6.67-59.69 1.33-59.69L1.33-59.69Q-4.00-59.69-6.34-56.69Q-8.67-53.69-8.67-47.85L-8.67-47.85L-8.67 35.72Q-8.67 41.56-6.34 44.64Q-4.00 47.73 1.33 47.73L1.33 47.73Q6.67 47.73 9.01 44.64Q11.34 41.56 11.34 35.72L11.34 35.72L11.34 19.04L18.01 19.04Z"/>
    </g>
    <g transform="matrix(0.5 0 0 0.5 250.5 277.6041254297322)" style="">
        <path fill="#000000" opacity="1" d="M-7.14 9.55L-7.14 8.33Q-7.14 6.27-6.38 4.32Q-5.62 2.38-4.71 0.43Q-3.80-1.52-3.04-3.46Q-2.28-5.41-2.28-7.47L-2.28-7.47L-2.28-8.72Q-2.28-9.78-2.71-10.33Q-3.13-10.88-4.10-10.88L-4.10-10.88Q-5.08-10.88-5.50-10.33Q-5.93-9.78-5.93-8.72L-5.93-8.72L-5.93-5.65L-7.14-5.65L-7.14-8.72Q-7.14-10.36-6.43-11.20Q-5.72-12.03-4.10-12.03L-4.10-12.03Q-2.49-12.03-1.78-11.20Q-1.06-10.36-1.06-8.72L-1.06-8.72L-1.06-7.47Q-1.06-5.41-1.82-3.46Q-2.58-1.52-3.50 0.43Q-4.41 2.38-5.17 4.32Q-5.93 6.27-5.93 8.33L-5.93 8.33L-5.93 8.36L-1.06 8.36L-1.06 9.55L-7.14 9.55Z"/>
        <path fill="#000000" opacity="1" d="M1.03 6.51L1.03-8.72Q1.03-10.36 1.75-11.20Q2.46-12.03 4.07-12.03L4.07-12.03Q5.68-12.03 6.40-11.20Q7.11-10.36 7.11-8.72L7.11-8.72L7.11 6.51Q7.11 8.15 6.40 9.00Q5.68 9.85 4.07 9.85L4.07 9.85Q2.46 9.85 1.75 9.00Q1.03 8.15 1.03 6.51L1.03 6.51ZM2.25-8.72L2.25 6.51Q2.25 7.57 2.68 8.14Q3.10 8.70 4.07 8.70L4.07 8.70Q5.05 8.70 5.47 8.14Q5.90 7.57 5.90 6.51L5.90 6.51L5.90-8.72Q5.90-9.78 5.47-10.33Q5.05-10.88 4.07-10.88L4.07-10.88Q3.10-10.88 2.68-10.33Q2.25-9.78 2.25-8.72L2.25-8.72Z"/>
    </g>
</svg>